<svg xmlns="http://www.w3.org/2000/svg" width="668" height="200" viewBox="0 0 668 200"><rect width="100%" height="100%" fill="#DDDDDD"/><path fill="#999999" d="m173.265 67.825-19.09 23.37-2.22 2.75q1.87-.93 4.02-1.44 2.16-.51 4.65-.51 3.65 0 7.1 1.2 3.45 1.2 6.08 3.62 2.62 2.43 4.22 6.03 1.61 3.61 1.61 8.42 0 4.49-1.65 8.43-1.65 3.94-4.63 6.87-2.98 2.94-7.19 4.63-4.2 1.69-9.27 1.69-5.17 0-9.26-1.64-4.09-1.65-6.99-4.61-2.89-2.96-4.42-7.12-1.54-4.16-1.54-9.23 0-4.54 1.85-9.33 1.84-4.78 5.72-9.94l15.35-20.61q.8-1.06 2.33-1.82 1.54-.76 3.54-.76h9.79Zm-16.6 56.07q2.63 0 4.83-.89t3.78-2.49q1.58-1.6 2.47-3.76.89-2.16.89-4.69 0-2.76-.84-4.97-.85-2.2-2.4-3.73-1.56-1.54-3.74-2.34-2.18-.8-4.81-.8-2.62 0-4.76.89-2.14.89-3.65 2.47-1.51 1.58-2.36 3.74-.84 2.15-.84 4.65 0 2.67.73 4.87.74 2.2 2.18 3.76 1.45 1.56 3.58 2.43 2.14.86 4.94.86Zm68.22-56.07-19.09 23.37-2.22 2.75q1.87-.93 4.02-1.44 2.16-.51 4.65-.51 3.65 0 7.1 1.2 3.45 1.2 6.08 3.62 2.62 2.43 4.22 6.03 1.61 3.61 1.61 8.42 0 4.49-1.65 8.43-1.65 3.94-4.63 6.87-2.98 2.94-7.19 4.63-4.2 1.69-9.27 1.69-5.17 0-9.26-1.64-4.09-1.65-6.99-4.61-2.89-2.96-4.42-7.12-1.54-4.16-1.54-9.23 0-4.54 1.85-9.33 1.84-4.78 5.72-9.94l15.35-20.61q.8-1.06 2.33-1.82 1.54-.76 3.54-.76h9.79Zm-16.6 56.07q2.63 0 4.83-.89 2.21-.89 3.78-2.49 1.58-1.6 2.47-3.76.89-2.16.89-4.69 0-2.76-.84-4.97-.85-2.2-2.4-3.73-1.56-1.54-3.74-2.34-2.18-.8-4.81-.8-2.62 0-4.76.89-2.14.89-3.65 2.47-1.51 1.58-2.36 3.74-.84 2.15-.84 4.65 0 2.67.73 4.87.74 2.2 2.18 3.76 1.45 1.56 3.58 2.43 2.14.86 4.94.86Zm51.71.4q2.72 0 4.76-.78 2.05-.77 3.45-2.15 1.41-1.38 2.12-3.3.71-1.91.71-4.13 0-5.3-2.94-8.01-2.93-2.72-8.1-2.72-5.16 0-8.1 2.72-2.93 2.71-2.93 8.01 0 2.22.71 4.13.71 1.92 2.11 3.3t3.45 2.15q2.05.78 4.76.78Zm0-48.9q-2.44 0-4.22.75-1.78.76-2.96 2.03-1.18 1.27-1.74 2.91-.56 1.65-.56 3.48 0 1.91.47 3.71t1.58 3.2q1.11 1.41 2.94 2.25 1.82.85 4.49.85t4.5-.85q1.82-.84 2.93-2.25 1.12-1.4 1.58-3.2.47-1.8.47-3.71 0-1.83-.58-3.48-.58-1.64-1.73-2.91-1.16-1.27-2.94-2.03-1.78-.75-4.23-.75Zm10.86 23.23q5.88 1.91 8.68 5.85 2.8 3.94 2.8 9.63 0 4.28-1.62 7.75-1.63 3.47-4.56 5.91-2.94 2.45-7.06 3.79-4.11 1.33-9.1 1.33-4.98 0-9.1-1.33-4.11-1.34-7.05-3.79-2.94-2.44-4.56-5.91-1.63-3.47-1.63-7.75 0-5.69 2.81-9.63 2.8-3.94 8.68-5.85-4.68-1.96-7.01-5.57-2.34-3.6-2.34-8.67 0-3.65 1.49-6.81 1.49-3.16 4.16-5.5 2.67-2.33 6.39-3.65 3.71-1.31 8.16-1.31t8.17 1.31q3.71 1.32 6.38 3.65 2.67 2.34 4.17 5.5 1.49 3.16 1.49 6.81 0 5.07-2.34 8.67-2.34 3.61-7.01 5.57Zm83.39 18.82-5.83 5.74-15.08-15.08-15.22 15.17-5.83-5.74 15.22-15.26-14.51-14.51 5.79-5.79 14.5 14.51 14.42-14.42 5.88 5.79-14.47 14.46 15.13 15.13Zm53.58 4.5h16.51q1.78 0 2.83 1 1.04 1 1.04 2.64v6.59h-44.14v-3.65q0-1.11.47-2.34.46-1.22 1.49-2.2l19.53-19.58q2.45-2.49 4.39-4.76 1.93-2.27 3.22-4.49 1.29-2.23 1.98-4.52.69-2.29.69-4.83 0-2.31-.67-4.07-.66-1.76-1.89-2.96-1.22-1.2-2.93-1.8-1.72-.6-3.85-.6-1.96 0-3.63.55-1.67.56-2.96 1.56t-2.18 2.34q-.89 1.33-1.33 2.93-.76 2.05-1.96 2.72-1.2.67-3.47.31l-5.79-1.02q.67-4.63 2.58-8.12 1.92-3.5 4.79-5.83 2.87-2.34 6.58-3.52 3.72-1.18 7.99-1.18 4.45 0 8.14 1.31 3.7 1.32 6.32 3.72 2.63 2.4 4.1 5.78 1.47 3.39 1.47 7.53 0 3.56-1.05 6.58-1.05 3.03-2.8 5.79-1.76 2.76-4.12 5.34-2.36 2.58-4.94 5.25l-14.51 14.82q2.09-.63 4.16-.96 2.07-.33 3.94-.33Zm73.87-21.94q0 8.41-1.8 14.61-1.8 6.21-4.98 10.26-3.19 4.05-7.52 6.03-4.34 1.98-9.37 1.98-5.03 0-9.32-1.98-4.3-1.98-7.46-6.03-3.16-4.05-4.94-10.26-1.78-6.2-1.78-14.61 0-8.46 1.78-14.64 1.78-6.19 4.94-10.24t7.46-6.03q4.29-1.98 9.32-1.98t9.37 1.98q4.33 1.98 7.52 6.03 3.18 4.05 4.98 10.24 1.8 6.18 1.8 14.64Zm-11.35 0q0-6.99-1.02-11.57-1.02-4.59-2.74-7.3-1.71-2.72-3.93-3.81-2.23-1.09-4.63-1.09-2.36 0-4.56 1.09-2.21 1.09-3.9 3.81-1.69 2.71-2.69 7.3-1 4.58-1 11.57 0 6.98 1 11.57 1 4.58 2.69 7.29 1.69 2.72 3.9 3.81 2.2 1.09 4.56 1.09 2.4 0 4.63-1.09 2.22-1.09 3.93-3.81 1.72-2.71 2.74-7.29 1.02-4.59 1.02-11.57Zm62.97 0q0 8.41-1.8 14.61-1.8 6.21-4.98 10.26-3.19 4.05-7.52 6.03-4.34 1.98-9.37 1.98-5.03 0-9.32-1.98-4.3-1.98-7.46-6.03-3.16-4.05-4.94-10.26-1.78-6.2-1.78-14.61 0-8.46 1.78-14.64 1.78-6.19 4.94-10.24t7.46-6.03q4.29-1.98 9.32-1.98t9.37 1.98q4.33 1.98 7.52 6.03 3.18 4.05 4.98 10.24 1.8 6.18 1.8 14.64Zm-11.35 0q0-6.99-1.02-11.57-1.02-4.59-2.74-7.3-1.71-2.72-3.93-3.81-2.23-1.09-4.63-1.09-2.36 0-4.56 1.09-2.21 1.09-3.9 3.81-1.69 2.71-2.69 7.3-1 4.58-1 11.57 0 6.98 1 11.57 1 4.58 2.69 7.29 1.69 2.72 3.9 3.81 2.2 1.09 4.56 1.09 2.4 0 4.63-1.09 2.22-1.09 3.93-3.81 1.72-2.71 2.74-7.29 1.02-4.59 1.02-11.57Z"/></svg>